<svg id="ServiceBindingOperator" xmlns="http://www.w3.org/2000/svg" xmlns:xlink="http://www.w3.org/1999/xlink" viewBox="0 0 32 32"><defs><linearGradient id="hg95o8e41a" x1="-2792.841" y1="-2868.402" x2="-2789.735" y2="-2868.402" gradientTransform="translate(2808.295 2873.959)" gradientUnits="userSpaceOnUse"><stop offset=".237"/><stop offset="1" stop-opacity="0"/></linearGradient><linearGradient id="fl56017jbb" x1="585.994" y1="-3929.48" x2="589.1" y2="-3929.48" gradientTransform="translate(-570.54 3955.928)" xlink:href="#hg95o8e41a"/><mask id="z55p3nhomc" x="0" y="0" width="32" height="32" maskUnits="userSpaceOnUse"><path d="M6 2h10a2 2 0 0 1 2 2v3h-2V4H6v9h10v-2h2v2a2 2 0 0 1-2 2H6a2 2 0 0 1-2-2V4a2 2 0 0 1 2-2zM6 30h10a2 2 0 0 0 2-2v-3h-2v3H6v-9h10v2h2v-2a2 2 0 0 0-2-2H6a2 2 0 0 0-2 2v9a2 2 0 0 0 2 2z" style="fill:#fff"/><path transform="rotate(-90 17.007 5.558)" style="fill:url(#hg95o8e41a)" d="M15.454 2.058h3.106v7h-3.106z"/><path transform="rotate(90 17.006 26.448)" style="fill:url(#fl56017jbb)" d="M15.454 22.947h3.106v7h-3.106z"/></mask></defs><g style="mask:url(#z55p3nhomc)"><path id="Color" d="M0 0h32v32H0z"/></g><path d="M26 9.005v14H12v-2h-2v4h18v-18H10v4h2v-2h14"/></svg>