<svg id="ServiceBindingOperator" xmlns="http://www.w3.org/2000/svg" xmlns:xlink="http://www.w3.org/1999/xlink" viewBox="0 0 32 32"><defs><linearGradient id="r14n7ajzsa" x1="-2732.837" y1="-2808.396" x2="-2729.731" y2="-2808.396" gradientTransform="translate(2748.296 2813.95)" gradientUnits="userSpaceOnUse"><stop offset=".237"/><stop offset="1" stop-opacity="0"/></linearGradient><linearGradient id="didddr3tqb" x1="525.99" y1="-3869.486" x2="529.096" y2="-3869.486" gradientTransform="translate(-510.53 3895.929)" xlink:href="#r14n7ajzsa"/><linearGradient id="3sxenam9jd" y1="32" x2="32" gradientUnits="userSpaceOnUse"><stop offset=".1" stop-color="#0bbbb8"/><stop offset=".9" stop-color="#1062fc"/></linearGradient><mask id="06gbcx7fcc" x="0" y="0" width="32" height="32" maskUnits="userSpaceOnUse"><path d="M6.006 2H16a2 2 0 0 1 2 2v3h-2V4H6v9h10v-2h2v2a2 2 0 0 1-2 2H6a2 2 0 0 1-2-2V4a2 2 0 0 1 2.006-2zM6.007 29.993h10a2 2 0 0 0 2-2v-3h-2v3h-10V19h10v2h2v-2a2 2 0 0 0-2-2h-10a2 2 0 0 0-2 2v9a2 2 0 0 0 2 1.993z" style="fill:#fff"/><path transform="rotate(-90 17.012 5.554)" style="fill:url(#r14n7ajzsa)" d="M15.459 2.054h3.106v7h-3.106z"/><path transform="rotate(90 17.012 26.443)" style="fill:url(#didddr3tqb)" d="M15.459 22.943h3.106v7h-3.106z"/></mask></defs><g style="mask:url(#06gbcx7fcc)"><path style="fill:url(#3sxenam9jd)" d="M0 0h32v32H0z"/></g><path d="M26.017 9v14h-14v-2h-2v4h18V7h-18v4h2V9h14" style="fill:#001d6c"/></svg>