<svg id="ServiceBindingOperator" xmlns="http://www.w3.org/2000/svg" xmlns:xlink="http://www.w3.org/1999/xlink" viewBox="0 0 32 32"><defs><linearGradient id="5xndtqsyga" x1="-2672.841" y1="-2868.402" x2="-2669.735" y2="-2868.402" gradientTransform="translate(2688.295 2873.959)" gradientUnits="userSpaceOnUse"><stop offset=".237"/><stop offset="1" stop-opacity="0"/></linearGradient><linearGradient id="mdvni2orpb" x1="585.994" y1="-3809.48" x2="589.1" y2="-3809.48" gradientTransform="translate(-570.54 3835.928)" xlink:href="#5xndtqsyga"/><linearGradient id="rva4qx5wvd" y1="32" x2="32" gradientUnits="userSpaceOnUse"><stop offset=".1" stop-color="#3dd9d7"/><stop offset=".9" stop-color="#4587fd"/></linearGradient><mask id="9lhm776e5c" x="0" y="0" width="32" height="32" maskUnits="userSpaceOnUse"><path d="M6 2h10a2 2 0 0 1 2 2v3h-2V4H6v9h10v-2h2v2a2 2 0 0 1-2 2H6a2 2 0 0 1-2-2V4a2 2 0 0 1 2-2zM6 30h10a2 2 0 0 0 2-2v-3h-2v3H6v-9h10v2h2v-2a2 2 0 0 0-2-2H6a2 2 0 0 0-2 2v9a2 2 0 0 0 2 2z" style="fill:#fff"/><path transform="rotate(-90 17.007 5.558)" style="fill:url(#5xndtqsyga)" d="M15.454 2.058h3.106v7h-3.106z"/><path transform="rotate(90 17.006 26.448)" style="fill:url(#mdvni2orpb)" d="M15.454 22.947h3.106v7h-3.106z"/></mask></defs><g style="mask:url(#9lhm776e5c)"><path id="Color" style="fill:url(#rva4qx5wvd)" d="M0 0h32v32H0z"/></g><path d="M26 9.005v14H12v-2h-2v4h18v-18H10v4h2v-2h14" style="fill:#f2f2f2"/></svg>